<svg id="visual" viewBox="0 0 960 540" width="960" height="540" xmlns="http://www.w3.org/2000/svg" xmlns:xlink="http://www.w3.org/1999/xlink" version="1.1"><rect x="0" y="0" width="960" height="540" fill="#e9e9e9"></rect><defs><linearGradient id="grad1_0" x1="43.8%" y1="0%" x2="100%" y2="100%"><stop offset="14.444444444444446%" stop-color="#e9e9e9" stop-opacity="1"></stop><stop offset="85.55555555555554%" stop-color="#e9e9e9" stop-opacity="1"></stop></linearGradient></defs><defs><linearGradient id="grad2_0" x1="0%" y1="0%" x2="56.3%" y2="100%"><stop offset="14.444444444444446%" stop-color="#e9e9e9" stop-opacity="1"></stop><stop offset="85.55555555555554%" stop-color="#e9e9e9" stop-opacity="1"></stop></linearGradient></defs><g transform="translate(960, 0)"><path d="M0 378C-55.2 378.7 -110.5 379.4 -144.7 349.2C-178.8 319 -191.9 257.9 -219.2 219.2C-246.5 180.5 -288.1 164.1 -316.9 131.3C-345.7 98.5 -361.9 49.2 -378 0L0 0Z" fill="#FBAE3C"></path></g><g transform="translate(0, 540)"><path d="M0 -378C49.5 -372.4 98.9 -366.8 144.7 -349.2C190.4 -331.6 232.3 -302 265.9 -265.9C299.4 -229.7 324.5 -187 341.8 -141.6C359.1 -96.2 368.6 -48.1 378 0L0 0Z" fill="#FBAE3C"></path></g></svg>